PathFileType	4	(X/Y/Z)	E:\3-PhD\Data\MocapData\ElaboratedData\012\pre\dynamicElaborations\Run_baselineB1\Run_baselineB1.trc
DataRate	CameraRate	NumFrames	NumMarkers	Units	OrigDataRate	OrigDataStartFrame	OrigNumFrames
200	200	5	56	mm	200	661	93
Frame#	Time	FHD			LBHD			RBHD			C7			T10			CLAV			LSHO			LUUPA			LMUPA			LDUPA			LLEP			LMEP			LRAD			LUL			LRFIN			RSHO			RUPA1			RMUPA			RDUPA			RLEP			RMEP			RRAD			RUL			RUFIN			LASI			RASI			USACR			LSACR			RSACR			LTHI1			LTHI2			LTHI3			LTHI4			LLFC			LTIB1			LTIB2			LTIB3			LTIB4			LHEE			LMT1			LMT5			LMT2			RTHI			RTHI2			RTHI3			RTHI4			RLFC			RTIB1			RTIB2			RTIB3			RTIB4			RLMAL			RHEE			RMT1			RMT2			RMT5		
		X1	Y1	Z1	X2	Y2	Z2	X3	Y3	Z3	X4	Y4	Z4	X5	Y5	Z5	X6	Y6	Z6	X7	Y7	Z7	X8	Y8	Z8	X9	Y9	Z9	X10	Y10	Z10	X11	Y11	Z11	X12	Y12	Z12	X13	Y13	Z13	X14	Y14	Z14	X15	Y15	Z15	X16	Y16	Z16	X17	Y17	Z17	X18	Y18	Z18	X19	Y19	Z19	X20	Y20	Z20	X21	Y21	Z21	X22	Y22	Z22	X23	Y23	Z23	X24	Y24	Z24	X25	Y25	Z25	X26	Y26	Z26	X27	Y27	Z27	X28	Y28	Z28	X29	Y29	Z29	X30	Y30	Z30	X31	Y31	Z31	X32	Y32	Z32	X33	Y33	Z33	X34	Y34	Z34	X35	Y35	Z35	X36	Y36	Z36	X37	Y37	Z37	X38	Y38	Z38	X39	Y39	Z39	X40	Y40	Z40	X41	Y41	Z41	X42	Y42	Z42	X43	Y43	Z43	X44	Y44	Z44	X45	Y45	Z45	X46	Y46	Z46	X47	Y47	Z47	X48	Y48	Z48	X49	Y49	Z49	X50	Y50	Z50	X51	Y51	Z51	X52	Y52	Z52	X53	Y53	Z53	X54	Y54	Z54	X55	Y55	Z55	X56	Y56	Z56	
661	3.300000	-2422.770391	1730.770933	460.755856	-2581.479881	1705.598415	365.489035	-2565.814196	1702.837759	513.318388	-2631.025946	1551.211186	434.765839	-2800.575338	1258.527357	345.717101	-2517.137705	1427.302724	436.074612	-2499.511369	1549.706199	298.967457	-2572.637798	1405.060793	125.624010	-2557.974198	1358.192969	138.206889	-2600.273827	1349.169661	94.822029	-2628.138721	1272.259955	54.423414	-2695.819331	1266.349276	115.236259	-2624.044791	989.492380	95.197455	-2612.361605	1003.314333	18.632390	-2618.802963	901.318541	73.984893	-2571.363314	1461.806376	608.553840	-2687.773385	1240.636482	642.238075	-2647.463155	1213.625326	635.519990	-2685.934894	1171.420238	631.769219	-2681.386740	1099.704022	618.380266	-2707.960761	1102.829807	538.105481	-2430.148141	1073.319352	495.387214	-2427.523947	1001.784676	527.730131	-2348.405319	1058.041316	479.480813	-2698.500364	993.272339	245.785260	-2762.062948	1015.155199	471.991469	-2866.401573	1126.921015	314.797627	-2876.945969	1097.691787	284.315475	-2892.192441	1102.465081	338.852294	-2774.623771	730.279352	159.875348	-2725.999319	660.649905	173.392013	-2684.994935	668.476216	196.933165	-2745.946073	604.505147	176.717160	-2759.801892	460.129452	209.720139	-2923.148962	421.764554	290.090848	-2970.111220	444.983544	224.539210	-2970.885696	414.720264	261.718820	-3048.044855	430.427802	294.577143	-3214.974215	546.974089	315.045671	-3256.974822	335.303629	322.316131	-3258.198561	366.170947	231.141631	-3247.997069	326.653921	275.581223	-2828.347420	708.302053	507.937658	-2775.177016	665.330557	524.512983	-2744.978835	668.633627	523.047402	-2785.064145	582.364439	495.542611	-2763.040432	464.849397	482.772822	-2763.206818	334.556481	428.348671	-2863.594873	295.692070	442.792284	-2825.910480	272.134156	431.064117	-2832.920982	230.663125	392.056789	-2964.197776	110.272485	355.007029	-3011.143743	72.634860	287.513544	-2790.285869	65.096300	339.280710	-2805.859451	63.755022	380.456333	-2859.896477	46.176417	420.223775	
662	3.305000	-2394.268196	1729.872170	460.588335	-2553.307510	1704.229151	365.839339	-2536.686721	1701.462511	513.913807	-2601.993041	1549.492773	435.449274	-2771.462990	1255.409909	345.732495	-2487.614698	1425.375467	435.115963	-2472.131707	1549.353671	297.817231	-2552.066590	1411.089005	122.629237	-2537.211933	1363.800508	132.221359	-2581.312964	1356.812110	90.546298	-2611.438537	1281.672843	48.296490	-2676.573832	1274.125189	111.176572	-2609.443097	998.006483	77.810842	-2600.119931	1013.987377	1.368588	-2608.230221	910.275651	53.919544	-2538.682377	1460.870864	607.441907	-2644.784209	1236.023013	640.912587	-2603.719880	1210.907729	631.789067	-2640.583393	1167.285412	628.585810	-2633.165708	1095.623082	612.812928	-2661.806487	1099.786114	532.521114	-2384.000925	1088.757763	482.839225	-2376.001984	1016.641595	513.094488	-2301.465074	1079.634337	465.350433	-2669.577073	990.415713	247.229991	-2736.059103	1012.229011	472.250737	-2837.263970	1125.953199	313.376281	-2847.538226	1096.933446	282.896649	-2863.306550	1101.712118	337.133924	-2734.201515	730.885575	160.807428	-2682.123987	663.970373	175.026372	-2642.083414	673.895946	199.909505	-2699.089479	606.982117	178.532845	-2706.292298	463.024802	213.014646	-2869.038804	423.388872	291.324895	-2915.851558	445.689385	224.176234	-2917.029649	415.635748	261.106576	-2994.355389	430.643568	293.867326	-3165.455594	544.151493	309.679529	-3202.600940	331.733325	315.753432	-3199.744254	362.599020	223.691714	-3190.153548	323.178404	268.641022	-2810.403700	706.222390	504.857248	-2758.172245	661.554076	522.441761	-2727.926778	663.960232	520.622251	-2770.806185	578.879229	492.798415	-2752.313252	460.625019	480.190173	-2756.368020	330.138091	425.957092	-2857.845709	294.459272	440.325148	-2820.927243	269.600860	428.710337	-2829.072450	228.228634	389.768223	-2963.560093	111.584062	352.944272	-3011.242862	73.392161	285.822082	-2790.448827	65.305885	338.788025	-2806.205247	64.130111	379.913126	-2860.415894	46.872962	419.432056	
663	3.310000	-2365.698341	1729.169777	460.205949	-2525.072520	1703.049254	365.985750	-2507.346582	1700.173008	514.424676	-2572.801183	1547.939539	435.892291	-2742.258013	1252.454608	345.848223	-2457.926648	1423.734676	433.830166	-2444.714702	1549.308039	296.564106	-2531.575098	1417.893363	119.849826	-2516.427129	1370.393160	126.078538	-2562.373907	1365.349900	86.435003	-2594.551221	1291.962073	42.385248	-2657.114295	1282.635519	107.073179	-2594.408624	1007.886160	61.270917	-2587.534752	1025.947443	-14.929381	-2596.780533	920.832259	35.032621	-2505.479473	1460.570955	605.849027	-2601.441166	1232.695582	639.516628	-2559.833102	1209.491767	628.018391	-2595.178371	1164.504162	625.355558	-2585.102969	1093.102583	607.373654	-2615.484093	1098.037440	526.906128	-2339.199308	1105.251314	471.196440	-2326.014909	1032.978733	499.313480	-2256.307879	1102.156331	452.346968	-2640.685518	987.591396	248.469879	-2709.735440	1009.034563	472.375112	-2807.971663	1125.268968	312.294290	-2818.128895	1096.488978	281.717509	-2834.279890	1101.193765	335.764365	-2693.723806	732.506531	161.833856	-2638.309506	668.560953	176.964434	-2599.385679	680.618330	203.126269	-2652.185718	610.880366	180.664542	-2652.651239	467.556559	216.633477	-2814.856549	425.336087	292.368758	-2861.269883	446.721855	223.779445	-2862.842434	416.785410	260.265880	-2940.437383	430.448048	292.625684	-3116.139864	539.772372	303.768432	-3147.302349	326.706229	309.146436	-3140.524884	357.553131	216.176932	-3131.271624	318.309933	261.625785	-2792.791582	704.369848	501.723501	-2741.704477	657.922406	520.395686	-2711.391020	659.472198	518.389783	-2756.992406	575.726714	490.260181	-2742.225325	456.811540	477.847836	-2750.026117	326.204295	423.984868	-2852.474479	293.624576	438.186758	-2816.318774	267.523535	426.762224	-2825.483301	226.230715	387.935044	-2962.898522	113.204602	351.281161	-3011.271112	74.641109	284.456469	-2790.547402	65.568546	338.443126	-2806.429738	64.467686	379.538895	-2860.832478	47.444602	418.771840	
664	3.315000	-2337.045573	1728.690177	459.587033	-2496.748338	1702.080699	365.891547	-2477.871125	1699.008464	514.734506	-2543.460189	1546.594864	436.101510	-2712.937780	1249.780650	346.125410	-2428.074674	1422.429001	432.204720	-2417.236419	1549.568067	295.216724	-2511.064642	1425.381808	117.387025	-2495.552662	1377.916544	119.916802	-2543.353760	1374.692001	82.599160	-2577.347894	1303.016870	36.765814	-2637.385686	1291.819205	102.967852	-2578.896355	1018.924597	45.628198	-2574.548954	1039.013248	-30.199414	-2584.378131	932.732423	17.333919	-2471.813704	1460.925935	603.785122	-2557.924272	1230.600118	638.017401	-2515.967559	1209.298563	624.222067	-2549.847432	1162.991807	622.116502	-2537.383370	1092.046361	602.137539	-2569.194762	1097.494142	521.318812	-2295.817410	1122.504970	460.531089	-2277.687196	1050.467597	486.477058	-2212.980611	1125.244090	440.497752	-2611.757717	984.937091	249.426214	-2682.987148	1005.613204	472.388900	-2778.533641	1124.805916	311.564421	-2788.696158	1096.301358	280.809605	-2805.095958	1100.843453	334.760841	-2653.291696	735.154966	162.957701	-2594.701052	674.400386	179.201138	-2557.024516	688.592869	206.515222	-2605.418785	616.195826	183.113293	-2599.080093	473.718418	220.549584	-2760.737396	427.592124	293.269847	-2806.503439	448.085131	223.393813	-2808.426808	418.170372	259.299694	-2886.395403	429.823208	290.842947	-3066.959390	533.813961	297.449437	-3090.982775	320.285790	302.564972	-3080.582131	351.175223	208.688970	-3071.395418	312.166821	254.603794	-2775.362096	702.771878	498.603636	-2725.688565	654.465308	518.328340	-2695.287188	655.164276	516.317747	-2743.602061	572.938254	487.869391	-2732.784746	453.438986	475.714241	-2744.148225	322.814570	422.381408	-2847.430053	293.206833	436.420268	-2812.030949	265.935696	425.222293	-2822.131505	224.698323	386.549571	-2962.225019	115.104904	350.072528	-3011.261155	76.377142	283.496955	-2790.606758	65.814084	338.233097	-2806.553878	64.704832	379.322249	-2861.159853	47.866553	418.269705	
665	3.320000	-2308.295959	1728.458371	458.718040	-2468.308415	1701.352399	365.523104	-2448.316351	1698.009405	514.750691	-2513.984276	1545.499832	436.084577	-2683.478643	1247.482441	346.625287	-2398.060113	1421.496938	430.237094	-2389.676267	1550.131004	293.774010	-2490.414638	1433.428240	115.324408	-2474.504608	1386.274152	113.884412	-2524.130273	1384.711221	79.140681	-2559.694280	1314.698883	31.509508	-2617.332489	1301.590182	98.906829	-2562.862479	1030.906197	30.907179	-2561.108306	1052.988536	-44.404660	-2570.979677	945.711766	0.800404	-2437.767932	1461.924850	601.270970	-2514.421732	1229.661860	636.386557	-2472.289533	1210.223702	620.417984	-2504.724570	1162.643299	618.902617	-2490.168349	1092.317869	597.182416	-2523.173457	1098.031826	515.858796	-2253.893477	1140.209594	450.884059	-2231.095399	1068.759081	474.645992	-2171.481926	1148.532677	429.794470	-2582.732292	982.589761	250.060451	-2655.719011	1002.015521	472.321254	-2748.957778	1124.497884	311.193886	-2759.222566	1096.308359	280.197869	-2775.737343	1100.594915	334.135139	-2613.015362	738.817049	164.177893	-2551.448666	681.433795	181.707698	-2515.122558	697.731711	210.003369	-2558.984390	622.880766	185.858321	-2545.800043	481.455141	224.714780	-2706.803458	430.131446	294.092522	-2751.694957	449.745106	223.059354	-2753.876767	419.768932	258.336675	-2832.324741	428.746309	288.560781	-3017.814334	526.265923	290.853758	-3033.479159	312.563931	296.063793	-3019.929598	343.619263	201.314861	-3010.551151	304.888085	247.646749	-2757.926797	701.471786	495.592429	-2710.024980	651.241852	516.167062	-2679.511261	651.067154	514.355958	-2730.606002	570.567672	485.540777	-2723.969517	450.572723	473.742305	-2738.683419	320.048576	421.091494	-2842.653148	293.248701	435.044851	-2807.999204	264.894340	424.073706	-2818.976526	223.683926	385.588733	-2961.523656	117.280598	349.375250	-3011.228660	78.628400	283.017893	-2790.652932	65.990234	338.151307	-2806.603413	64.794736	379.253482	-2861.414468	48.130224	417.947340	
